<?xml version="1.0" encoding="utf-8"?>
<!-- Generator: Adobe Illustrator 17.1.0, SVG Export Plug-In . SVG Version: 6.00 Build 0)  -->
<!DOCTYPE svg PUBLIC "-//W3C//DTD SVG 1.1//EN" "http://www.w3.org/Graphics/SVG/1.1/DTD/svg11.dtd">
<svg version="1.1" id="Layer_1" xmlns="http://www.w3.org/2000/svg" xmlns:xlink="http://www.w3.org/1999/xlink" x="0px" y="0px"
	 viewBox="0 0 78.5 78.5" enable-background="new 0 0 78.5 78.5" xml:space="preserve">
<path fill-rule="evenodd" clip-rule="evenodd" fill="#7BCCC4" d="M58.9,58.9l-3.8-5.5L54,54l-7.4-7.4l-2.4,2.4l7.4,7.4L51,57.5
	l5.5,3.8L58.9,58.9L58.9,58.9z M29.6,37.5l-8.2-8.3c-1.2-1.2-3.1,0.6-1.8,1.8l8.2,8.2L29.6,37.5L29.6,37.5z M33.3,33.8l-8.2-8.2
	c-1.2-1.2-3.1,0.6-1.8,1.8l8.2,8.2L33.3,33.8L33.3,33.8z M34.4,27.5l-5.6-5.6c-1.2-1.2-3.1,0.6-1.8,1.8l7.1,7.1
	C34,29.7,34.1,28.6,34.4,27.5L34.4,27.5z M17.4,28.9c-2.5-2.5-2.5-6.6,0-9.2c2.5-2.5,6.6-2.5,9.2,0L17.4,28.9L17.4,28.9z M46.5,44
	c4.5,1,9.2-0.4,12.5-3.7c4.4-4.4,4.7-10.4,3.1-14.9l-8.8,8.8c-1.3,1.3-8.7-6.1-7.4-7.4l8.8-8.8c-4.4-1.5-10.5-1.3-14.9,3.1
	c-3.3,3.3-4.6,8-3.7,12.5L21,48.8c-2.9,2.9-2.9,7.5,0,10.4c2.9,2.9,7.5,2.9,10.4,0L46.5,44L46.5,44z M29.2,50.9
	c-1.5-1.5-3.9-1.5-5.3,0c-1.5,1.5-1.5,3.9,0,5.3c1.5,1.5,3.9,1.5,5.3,0C30.7,54.8,30.7,52.4,29.2,50.9L29.2,50.9z"/>
<path fill="#7BCCC4" d="M39.2,1.1c21,0,38.1,17.1,38.1,38.1S60.3,77.3,39.2,77.3S1.1,60.3,1.1,39.2S18.2,1.1,39.2,1.1 M39.2,0
	C17.6,0,0,17.6,0,39.2s17.6,39.2,39.2,39.2s39.2-17.6,39.2-39.2S60.9,0,39.2,0L39.2,0z"/>
</svg>
