<?xml version="1.0" encoding="utf-8"?>
<!-- Generator: Adobe Illustrator 17.1.0, SVG Export Plug-In . SVG Version: 6.00 Build 0)  -->
<!DOCTYPE svg PUBLIC "-//W3C//DTD SVG 1.1//EN" "http://www.w3.org/Graphics/SVG/1.1/DTD/svg11.dtd">
<svg version="1.1" id="Layer_1" xmlns="http://www.w3.org/2000/svg" xmlns:xlink="http://www.w3.org/1999/xlink" x="0px" y="0px"
	 viewBox="0 90 611.2 611.2" enable-background="new 0 90 611.2 611.2" xml:space="preserve">
<path fill="#7BCCC4" d="M332.1,187.5c100.6,0,182.4,81.9,182.4,182.4c0,45.2-16.4,86.5-43.7,118.5c14-23.4,22.6-49.9,24.9-78
	l-56.1-17.2l56.1-17.2c-8.6-90.4-80.3-161.4-170-170l-17.2,56.1l-17.2-56.1c-28.1,2.3-54.6,11.7-78,24.9
	C245.6,203.8,286.9,187.5,332.1,187.5L332.1,187.5z M256.5,347.3c2.3-11.7,7-24.2,21.8-24.2c10.9,0,16.4,7.8,16.4,17.9
	c0,18.7-26.5,35.9-39,49.1c-14.8,15.6-17.9,26.5-19.5,47.6h86.5v-24.2h-55.4c2.3-10.1,17.2-19.5,24.9-26.5
	c14.8-12.5,28.8-24.9,28.8-46c0-24.2-19.5-39-42.9-39s-33.5,11.7-44.4,32L256.5,347.3L256.5,347.3z M387.5,325.4v57.7h-33.5
	L387.5,325.4L387.5,325.4z M336,404.2h51.5v33.5H414v-33.5h10.9v-21.8H414v-78.7h-35.9l-41.3,72.5v28.1H336z M97.5,384.7
	c1.6-24.9,21-54.6,33.5-67l21.8-10.9c17.2-8.6,66.3,76.4,49.9,86.5l-21,13.3c-11.7,5.5-14.8,26.5-1.6,39.8l74.1,74.1
	c13.3,13.3,34.3,10.1,39.8-1.6l13.3-20.3c10.9-16.4,95.9,32.7,86.5,49.9l-10.9,21.8c-12.5,12.5-42.1,31.2-67,33.5
	C216,561.7,140.3,486,97.5,384.7L97.5,384.7z"/>
<path fill="#7BCCC4" d="M305.6,98.6c163.7,0,297,133.3,297,297s-132.5,297-297,297s-297-132.5-297-297S141.9,98.6,305.6,98.6
	 M305.6,90C137.2,90,0,227.2,0,395.6s137.2,305.6,305.6,305.6S611.2,564,611.2,395.6S474.8,90,305.6,90L305.6,90z"/>
</svg>
