<?xml version="1.0" encoding="utf-8"?>
<!-- Generator: Adobe Illustrator 17.1.0, SVG Export Plug-In . SVG Version: 6.00 Build 0)  -->
<!DOCTYPE svg PUBLIC "-//W3C//DTD SVG 1.1//EN" "http://www.w3.org/Graphics/SVG/1.1/DTD/svg11.dtd">
<svg version="1.1" id="Layer_1" xmlns="http://www.w3.org/2000/svg" xmlns:xlink="http://www.w3.org/1999/xlink" x="0px" y="0px"
	 viewBox="0 90 611.2 611.2" enable-background="new 0 90 611.2 611.2" xml:space="preserve">
<path fill="#7BCCC4" d="M305.6,98.6c163.7,0,297,133.3,297,297s-132.5,297-297,297s-297-132.5-297-297S141.9,98.6,305.6,98.6
	 M305.6,90C137.2,90,0,227.2,0,395.6s137.2,305.6,305.6,305.6S611.2,564,611.2,395.6S474.8,90,305.6,90L305.6,90z"/>
<g>
	<path fill="#B0E0DC" d="M461.5,346.5c-9.4,14.8-26.5,17.9-39,17.9c-12.5,0-29.6-3.1-39-17.9v37.4l-30.4,12.5
		c12.5,3.9,32.7,13.3,46.8,19.5c25.7,11.7,29.6,56.1,29.6,78.7h127.1l-6.2-57.7c-1.6-16.4-7.8-26.5-22.6-31.2l-67-21v-38.2H461.5z"
		/>
	<path fill="#B0E0DC" d="M379.7,300.5c6.2-25.7,2.3-43.7,14-55.4c13.3,6.2,44.4,6.2,58.5,0c12.5,11.7,7.8,29.6,14,55.4l10.1-10.1
		c9.4-42.1,1.6-81.9-53.8-81.9c-54.6,0-63.1,39.8-53.8,81.9L379.7,300.5z"/>
</g>
<path fill="#7BCCC4" d="M84.2,560.9H205l-4.7-16.4H98.2L78,467.3h-4.7c-7.8,0-13.3,4.7-10.9,14L84.2,560.9L84.2,560.9z M180.1,417.4
	c-7.8,3.1-15.6,5.5-21,6.2c-12.5,3.9-19.5,21.8-23.4,43.7H184c7.8,0,14.8,2.3,17.9,14l15.6,58.5h43.7c3.1,0,6.2,3.1,6.2,6.2v14h152
	c-0.8-32.7,1.6-127.1-28.8-136.4c-5.5-1.6-13.3-3.1-21-6.2c-15.6,25.7-52.2,43.7-94.3,43.7C232.3,461.1,195.7,443.2,180.1,417.4
	L180.1,417.4z M274.4,209.3c55.4,0,75.6,52.2,75.6,93.6v106.8c-15.6-6.2-43.7-12.5-43.7-29.6v-21.8c14.8-14.8,17.9-48.3,17.9-66.3
	c-3.1-23.4-23.4-32.7-33.5-42.1c-29.6,18.7-60.8,14-65.5,41.3c0,17.2,3.1,50.7,17.9,66.3v21.8c0,17.2-28.1,23.4-43.7,29.6v-106
	C198.8,260.7,219.1,209.3,274.4,209.3L274.4,209.3z"/>
</svg>
