<?xml version="1.0" encoding="utf-8"?>
<!-- Generator: Adobe Illustrator 17.1.0, SVG Export Plug-In . SVG Version: 6.00 Build 0)  -->
<!DOCTYPE svg PUBLIC "-//W3C//DTD SVG 1.1//EN" "http://www.w3.org/Graphics/SVG/1.1/DTD/svg11.dtd">
<svg version="1.1" id="Layer_1" xmlns="http://www.w3.org/2000/svg" xmlns:xlink="http://www.w3.org/1999/xlink" x="0px" y="0px"
	 viewBox="0 0 78.5 78.5" enable-background="new 0 0 78.5 78.5" xml:space="preserve">
<path fill-rule="evenodd" clip-rule="evenodd" fill="#7BCCC4" d="M42.6,12.5C55.5,12.5,66,23,66,35.9c0,5.8-2.1,11.1-5.6,15.2
	c1.8-3,2.9-6.4,3.2-10l-7.2-2.2l7.2-2.2C62.5,25.1,53.3,16,41.8,14.9l-2.2,7.2l-2.2-7.2c-3.6,0.3-7,1.5-10,3.2
	C31.5,14.6,36.8,12.5,42.6,12.5L42.6,12.5z M32.9,33c0.3-1.5,0.9-3.1,2.8-3.1c1.4,0,2.1,1,2.1,2.3c0,2.4-3.4,4.6-5,6.3
	c-1.9,2-2.3,3.4-2.5,6.1h11.1v-3.1h-7.1c0.3-1.3,2.2-2.5,3.2-3.4c1.9-1.6,3.7-3.2,3.7-5.9c0-3.1-2.5-5-5.5-5c-3,0-4.3,1.5-5.7,4.1
	L32.9,33L32.9,33z M49.7,30.2v7.4h-4.3L49.7,30.2L49.7,30.2z M43.1,40.3h6.6v4.3h3.4v-4.3h1.4v-2.8h-1.4V27.4h-4.6l-5.3,9.3V40.3
	L43.1,40.3z M12.5,37.8c0.2-3.2,2.7-7,4.3-8.6l2.8-1.4c2.2-1.1,8.5,9.8,6.4,11.1l-2.7,1.7c-1.5,0.7-1.9,3.4-0.2,5.1l9.5,9.5
	c1.7,1.7,4.4,1.3,5.1-0.2l1.7-2.6c1.4-2.1,12.3,4.2,11.1,6.4l-1.4,2.8c-1.6,1.6-5.4,4-8.6,4.3C27.7,60.5,18,50.8,12.5,37.8
	L12.5,37.8z"/>
<path fill="#7BCCC4" d="M39.2,1.1c21,0,38.1,17.1,38.1,38.1S60.3,77.3,39.2,77.3S1.1,60.3,1.1,39.2S18.2,1.1,39.2,1.1 M39.2,0
	C17.6,0,0,17.6,0,39.2s17.6,39.2,39.2,39.2s39.2-17.6,39.2-39.2S60.9,0,39.2,0L39.2,0z"/>
</svg>
