<?xml version="1.0" encoding="utf-8"?>
<!-- Generator: Adobe Illustrator 17.1.0, SVG Export Plug-In . SVG Version: 6.00 Build 0)  -->
<!DOCTYPE svg PUBLIC "-//W3C//DTD SVG 1.1//EN" "http://www.w3.org/Graphics/SVG/1.1/DTD/svg11.dtd">
<svg version="1.1" id="Layer_1" xmlns="http://www.w3.org/2000/svg" xmlns:xlink="http://www.w3.org/1999/xlink" x="0px" y="0px"
	 viewBox="0 0 27.7 27.7" enable-background="new 0 0 27.7 27.7" xml:space="preserve">
<path fill-rule="evenodd" clip-rule="evenodd" fill="#FFFFFF" d="M15.6,0c6.7,0,12.1,5.4,12.1,12.1c0,3-1.1,5.8-2.9,7.9
	c0.9-1.5,1.5-3.3,1.7-5.2l-3.7-1.2l3.7-1.2c-0.5-6-5.3-10.7-11.2-11.2L14,5l-1.2-3.7C11,1.4,9.2,2,7.7,2.9C9.8,1.1,12.6,0,15.6,0
	L15.6,0z M10.5,10.6C10.7,9.8,11,9,12,9c0.7,0,1.1,0.5,1.1,1.2c0,1.3-1.8,2.4-2.6,3.2c-1,1-1.2,1.8-1.3,3.1h5.8V15h-3.7
	c0.2-0.7,1.2-1.3,1.7-1.7c1-0.8,1.9-1.7,1.9-3.1c0-1.6-1.3-2.6-2.9-2.6c-1.6,0-2.2,0.8-3,2.1L10.5,10.6L10.5,10.6z M19.2,9.1v3.8H17
	L19.2,9.1L19.2,9.1z M15.8,14.4h3.4v2.2H21v-2.2h0.8v-1.5H21V7.7h-2.4l-2.8,4.8V14.4L15.8,14.4z M0,13.1c0.1-1.6,1.4-3.6,2.2-4.4
	l1.5-0.7C4.8,7.3,8.1,13,7,13.7l-1.4,0.9c-0.8,0.4-1,1.7-0.1,2.6l4.9,4.9c0.9,0.9,2.3,0.6,2.6-0.1l0.9-1.4c0.7-1.1,6.4,2.2,5.8,3.3
	L19,25.5c-0.8,0.8-2.8,2.1-4.4,2.2C7.8,24.9,2.8,19.8,0,13.1L0,13.1z"/>
</svg>
