<?xml version="1.0" encoding="utf-8"?>
<!-- Generator: Adobe Illustrator 17.1.0, SVG Export Plug-In . SVG Version: 6.00 Build 0)  -->
<!DOCTYPE svg PUBLIC "-//W3C//DTD SVG 1.1//EN" "http://www.w3.org/Graphics/SVG/1.1/DTD/svg11.dtd">
<svg version="1.1" id="Layer_1" xmlns="http://www.w3.org/2000/svg" xmlns:xlink="http://www.w3.org/1999/xlink" x="0px" y="0px"
	 viewBox="0 90 612 612" enable-background="new 0 90 612 612" xml:space="preserve">
<path fill="#FFFFFF" d="M344.7,90C492.7,90,612,209.3,612,357.3c0,66.3-24.3,128.1-64.1,174.5c19.9-33.1,33.1-72.9,37.6-114.9
	l-81.7-26.5l81.7-26.5c-11-132.6-117.1-236.4-247.5-247.5l-28.7,84l-26.5-81.7c-39.8,2.2-79.5,15.5-112.7,35.4
	C216.5,114.3,278.4,90,344.7,90L344.7,90z M232,324.2c4.4-17.7,11-35.4,33.1-35.4c15.5,0,24.3,11,24.3,26.5
	c0,28.7-39.8,53-57.4,70.7c-22.1,22.1-26.5,39.8-28.7,68.5h128.1v-33.1h-81.7c4.4-15.5,26.5-28.7,37.6-37.6
	c22.1-17.7,42-37.6,42-68.5c0-35.4-28.7-57.4-64.1-57.4s-48.6,17.7-66.3,46.4L232,324.2L232,324.2z M424.2,291.1v84h-48.6
	L424.2,291.1L424.2,291.1z M349.1,408.2h75.1v48.6H464v-48.6h17.7V375H464V260.1h-53l-61.9,106.1V408.2L349.1,408.2z M0,379.4
	c2.2-35.4,30.9-79.5,48.6-97.2l33.1-15.5c24.3-15.5,97.2,110.5,72.9,125.9l-30.9,19.9c-17.7,8.8-22.1,37.6-2.2,57.4l108.3,108.3
	c19.9,19.9,50.8,13.3,57.4-2.2l19.9-30.9c15.5-24.3,141.4,48.6,128.1,72.9l-15.5,35.4c-17.7,17.7-61.9,46.4-97.2,48.6
	C172.3,640.1,61.9,527.5,0,379.4L0,379.4z"/>
</svg>
