<?xml version="1.0" encoding="utf-8"?>
<!-- Generator: Adobe Illustrator 17.1.0, SVG Export Plug-In . SVG Version: 6.00 Build 0)  -->
<!DOCTYPE svg PUBLIC "-//W3C//DTD SVG 1.1//EN" "http://www.w3.org/Graphics/SVG/1.1/DTD/svg11.dtd">
<svg version="1.1" id="Layer_1" xmlns="http://www.w3.org/2000/svg" xmlns:xlink="http://www.w3.org/1999/xlink" x="0px" y="0px"
	 viewBox="0 0 78.5 78.5" enable-background="new 0 0 78.5 78.5" xml:space="preserve">
<path fill="#7BCCC4" d="M39.2,1.1c21,0,38.1,17.1,38.1,38.1S60.3,77.3,39.2,77.3S1.1,60.3,1.1,39.2S18.2,1.1,39.2,1.1 M39.2,0
	C17.6,0,0,17.6,0,39.2s17.6,39.2,39.2,39.2s39.2-17.6,39.2-39.2S60.9,0,39.2,0L39.2,0z"/>
<g>
	<path fill="#B0E0DC" d="M59.2,32.9c-1.2,1.9-3.4,2.3-5,2.3c-1.6,0-3.8-0.4-5-2.3v4.8l-3.9,1.6c1.6,0.5,4.2,1.7,6,2.5
		c3.3,1.5,3.8,7.2,3.8,10.1h16.3l-0.8-7.4c-0.2-2.1-1-3.4-2.9-4l-8.6-2.7V32.9z"/>
	<path fill="#B0E0DC" d="M48.7,27c0.8-3.3,0.3-5.6,1.8-7.1c1.7,0.8,5.7,0.8,7.5,0c1.6,1.5,1,3.8,1.8,7.1l1.3-1.3
		c1.2-5.4,0.2-10.5-6.9-10.5c-7,0-8.1,5.1-6.9,10.5L48.7,27z"/>
</g>
<path fill-rule="evenodd" clip-rule="evenodd" fill="#7BCCC4" d="M10.8,60.4h15.5l-0.6-2.1H12.6l-2.6-9.9H9.4c-1,0-1.7,0.6-1.4,1.8
	L10.8,60.4L10.8,60.4z M23.1,42c-1,0.4-2,0.7-2.7,0.8c-1.6,0.5-2.5,2.8-3,5.6h6.2c1,0,1.9,0.3,2.3,1.8l2,7.5h5.6
	c0.4,0,0.8,0.4,0.8,0.8v1.8h19.5C53.7,56.1,54,44,50.1,42.8c-0.7-0.2-1.7-0.4-2.7-0.8c-2,3.3-6.7,5.6-12.1,5.6
	C29.8,47.6,25.1,45.3,23.1,42L23.1,42z M35.2,15.3c7.1,0,9.7,6.7,9.7,12l0,13.7c-2-0.8-5.6-1.6-5.6-3.8v-2.8
	c1.9-1.9,2.3-6.2,2.3-8.5c-0.4-3-3-4.2-4.3-5.4c-3.8,2.4-7.8,1.8-8.4,5.3c0,2.2,0.4,6.5,2.3,8.5v2.8c0,2.2-3.6,3-5.6,3.8V27.3
	C25.5,21.9,28.1,15.3,35.2,15.3L35.2,15.3z"/>
</svg>
