<?xml version="1.0" encoding="utf-8"?>
<!-- Generator: Adobe Illustrator 17.1.0, SVG Export Plug-In . SVG Version: 6.00 Build 0)  -->
<!DOCTYPE svg PUBLIC "-//W3C//DTD SVG 1.1//EN" "http://www.w3.org/Graphics/SVG/1.1/DTD/svg11.dtd">
<svg version="1.1" id="Layer_1" xmlns="http://www.w3.org/2000/svg" xmlns:xlink="http://www.w3.org/1999/xlink" x="0px" y="0px"
	 viewBox="0 90 611.2 611.2" enable-background="new 0 90 611.2 611.2" xml:space="preserve">
<path fill="#7BCCC4" d="M459.2,549.2l-29.6-42.9L421,511l-57.7-57.7L344.6,472l57.7,57.7l-4.7,8.6l42.9,29.6L459.2,549.2
	L459.2,549.2z M230.8,382.4l-63.9-64.7c-9.4-9.4-24.2,4.7-14,14l63.9,63.9L230.8,382.4L230.8,382.4z M259.6,353.5l-63.9-63.9
	c-9.4-9.4-24.2,4.7-14,14l63.9,63.9L259.6,353.5L259.6,353.5z M268.2,304.4l-43.7-43.7c-9.4-9.4-24.2,4.7-14,14l55.4,55.4
	C265.1,321.5,265.8,313,268.2,304.4L268.2,304.4z M135.7,315.3c-19.5-19.5-19.5-51.5,0-71.7c19.5-19.5,51.5-19.5,71.7,0L135.7,315.3
	L135.7,315.3z M362.5,433c35.1,7.8,71.7-3.1,97.5-28.8c34.3-34.3,36.6-81.1,24.2-116.2l-68.6,68.6c-10.1,10.1-67.8-47.6-57.7-57.7
	l68.6-68.6c-34.3-11.7-81.9-10.1-116.2,24.2c-25.7,25.7-35.9,62.4-28.8,97.5L163.7,470.5c-22.6,22.6-22.6,58.5,0,81.1
	c22.6,22.6,58.5,22.6,81.1,0L362.5,433L362.5,433z M227.6,486.8c-11.7-11.7-30.4-11.7-41.3,0c-11.7,11.7-11.7,30.4,0,41.3
	c11.7,11.7,30.4,11.7,41.3,0C239.3,517.2,239.3,498.5,227.6,486.8L227.6,486.8z"/>
<path fill="#7BCCC4" d="M305.6,98.6c163.7,0,297,133.3,297,297s-132.5,297-297,297s-297-132.5-297-297S141.9,98.6,305.6,98.6
	 M305.6,90C137.2,90,0,227.2,0,395.6s137.2,305.6,305.6,305.6S611.2,564,611.2,395.6S474.8,90,305.6,90L305.6,90z"/>
</svg>
